<?xml version="1.0" encoding="utf-8"?>
<!-- Logo created by Karthik Srinivas from the Noun Project  -->
<svg version="1.1" xmlns="http://www.w3.org/2000/svg" xmlns:xlink="http://www.w3.org/1999/xlink" x="0px" y="0px"
	 viewBox="0 0 85.5 64" style="enable-background:new 0 0 85.5 64;" xml:space="preserve">
<style type="text/css">
	.st0{fill:#FAF46A;}
	.st1{fill:#F44336;}
	.st2{fill:#FBF0E0;}
	.st3{fill:#372725;}
</style>
<g id="Layer_2">
	<path class="st0" d="M79.8,52.8H5l2.7-26.2c11.5,0,23.2-3.3,34.7-3.3c11.8,0,23.4,3.1,35.2,3.1C78.4,35.2,79.1,44,79.8,52.8z"/>
	<rect x="17.2" y="3.9" class="st1" width="52" height="19.9"/>
	<rect x="31.5" y="16.2" class="st2" width="22.3" height="6.2"/>
</g>
<g id="Layer_1">
	<path class="st3" d="M83.9,60.9l-3.6-34.7c-0.1-0.9-0.8-1.7-1.8-1.8l-6.4-0.8L70.3,5.1c-0.1-0.9-0.8-1.7-1.8-1.8L48.7,1.2
		c-4-0.4-8-0.4-12,0L16.8,3.3c-0.9,0.1-1.7,0.8-1.8,1.8l-1.9,18.7l-6.4,0.8c-0.9,0.1-1.7,0.8-1.8,1.8L1.4,60.9
		C1.3,62,2.1,63,3.2,63.1s2.1-0.7,2.2-1.8l0.7-6.6h73.1l0.7,6.6c0.1,1,1,1.8,2,1.8h0.2C83.2,63,84,62,83.9,60.9z M18.8,7.1l18.2-1.9
		c3.7-0.4,7.5-0.4,11.2,0l18.2,1.9l1.6,16.2l-11.2-1.3c-0.1-5-4.2-8.9-9.2-8.9H37.6c-5,0-9,4-9.2,8.9l-11.2,1.3L18.8,7.1z
		 M52.8,21.5L51,21.2c-5.5-0.6-11.1-0.6-16.6,0l-1.9,0.2c0.4-2.6,2.5-4.4,5.1-4.5h10.2C50.3,17,52.5,18.9,52.8,21.5L52.8,21.5z
		 M6.5,50.8l2.3-22.5l26-3c5.2-0.6,10.5-0.6,15.7,0l26,3l2.3,22.5H6.5z"/>
</g>
</svg>
